<?xml version="1.0" standalone="no"?><!DOCTYPE svg PUBLIC "-//W3C//DTD SVG 1.1//EN" "http://www.w3.org/Graphics/SVG/1.1/DTD/svg11.dtd"><svg t="1682254693501" class="icon" viewBox="0 0 1024 1024" version="1.1" xmlns="http://www.w3.org/2000/svg" p-id="4708" xmlns:xlink="http://www.w3.org/1999/xlink" width="200" height="200"><path d="M0 0h1024v1024H0z" fill="#D8D8D8" opacity=".2" p-id="4709"></path><path d="M119.125 430.66h44.817v21.334h1.366c15.889-13.295 35.208-25.327 55.193-25.327 24.832 0 34.475 10.666 40.005 27.989 17.92-15.974 37.222-27.99 57.207-27.99 28.28 0 40.687 14.678 40.687 43.333 0 7.339-1.024 15.991-2.748 24.013l-21.401 103.321h-55.16l19.985-96.665c1.4-5.99 2.782-10.65 2.782-14.678 0-9.318-5.512-13.994-14.472-13.994-6.912 0-15.89 6.007-28.28 18.688l-22.084 106.65h-55.16l20.037-96.666c1.365-5.99 2.747-10.65 2.747-14.678 0-9.318-5.512-13.994-13.79-13.994-7.594 0-16.554 6.007-28.962 18.688l-21.401 106.65H85.316l33.81-166.674z" fill="#231916" p-id="4710"></path><path d="M453.94 546.27l8.379-41.711c-3.157-6.776-9.42-9.882-14.165-9.882-15.139 0-29.27 20.31-29.27 49.494 0 13.568 4.694 19.302 12.066 19.302 6.759 0 16.197-3.123 22.99-17.203m-78.473 3.106c0-49.493 33.467-88.593 69.58-88.593 10.957 0 22.494 6.263 27.222 16.162h0.478l5.785-13.039H512L485.837 594.21H451.84v-16.162h-0.53c-11.502 11.998-26.691 19.285-39.218 19.285-23.04 0-36.625-17.186-36.625-47.94" fill="#DF651F" p-id="4711"></path><path d="M529.067 460.8h44.22l2.764 62.26c0.563 13.653 0.563 27.579 0.563 42.051h1.11c6.075-14.199 11.57-27.852 17.68-42.052L622.49 460.8h43.11l-69.086 136.533h-50.859L529.067 460.8zM749.33 516.557c0.545-2.082 1.057-5.223 1.057-8.363 0-8.84-3.72-15.616-14.916-15.616-10.138 0-20.821 7.305-26.658 23.979h40.516z m-8.534-55.757c32.529 0 44.27 22.409 44.27 49.493 0 13.04-5.341 27.631-7.475 31.3h-72.004c0.546 17.187 12.288 24.491 27.75 24.491 7.442 0 16.538-4.181 22.392-8.362l14.933 26.077c-10.65 7.288-27.716 13.551-49.578 13.551-32.563-0.017-55.484-21.401-55.484-56.303 0-47.94 39.492-80.247 75.179-80.247zM828.075 464.009h34.406v17.066h1.024c12.186-10.666 27-20.275 43.93-20.275 21.726 0 31.232 11.742 31.232 34.68 0 5.853-0.785 12.8-2.117 19.2l-16.384 82.653h-42.36l15.36-77.346c1.06-4.778 2.117-8.533 2.117-11.725 0-7.44-4.266-11.195-11.144-11.195-7.39 0-13.722 4.778-23.262 14.916l-16.384 85.35h-42.36l25.942-133.324z" fill="#231916" p-id="4712"></path></svg>